<svg width="29" height="29" viewBox="0 0 29 29" fill="none" xmlns="http://www.w3.org/2000/svg">
<path fill-rule="evenodd" clip-rule="evenodd" d="M0.791992 21.1926V6.97461C0.837892 6.71655 0.872072 6.45557 0.932132 6.20044C1.65186 3.14453 3.51416 1.17163 6.53906 0.314453C6.91211 0.208493 7.30078 0.159423 7.68213 0.0844727H21.8999C22.2822 0.159423 22.6689 0.217533 23.0459 0.313473C26.3291 1.14355 28.7422 4.06542 28.7739 7.38354C28.8179 11.8486 28.79 16.3135 28.7808 20.7786C28.7788 21.7166 28.5772 22.6306 28.1782 23.4766C26.7842 26.4395 24.4429 27.9924 21.1592 28.0776C20.167 28.1035 19.1729 28.0815 18.1802 28.0815C14.9361 28.0815 11.6919 28.0786 8.44826 28.0845C7.37599 28.0855 6.33986 27.9026 5.36916 27.4605C3.09426 26.4236 1.61916 24.6965 1.00686 22.2586C0.917992 21.9075 0.862822 21.5486 0.792022 21.1926H0.791992ZM14.5088 21.7246C18.4609 21.8906 22.2388 18.8406 22.4312 14.3655C22.6011 10.4136 19.5479 6.63548 15.0732 6.44359C11.1211 6.2744 7.34277 9.3264 7.15088 13.8015C6.98193 17.7534 10.0352 21.5295 14.5088 21.7246V21.7246ZM24.8711 6.08154C24.9561 4.91259 24.0161 3.80249 22.7598 3.72656C21.5249 3.65063 20.4429 4.58154 20.3828 5.90161C20.3311 7.02759 21.1382 8.13745 22.54 8.2185C23.687 8.28539 24.812 7.40454 24.8711 6.08154Z" fill="white"/>
<path fill-rule="evenodd" clip-rule="evenodd" d="M8.77809 14.0695C8.78444 10.7575 11.4841 8.06629 14.7981 8.06946C18.1223 8.07337 20.8181 10.7833 20.8054 14.1105C20.7922 17.4225 18.0862 20.1063 14.7712 20.0973C11.4592 20.0873 8.77125 17.3844 8.77809 14.0695V14.0695Z" fill="white"/>
<path fill-rule="evenodd" clip-rule="evenodd" d="M22.6268 6.58975C22.287 6.58755 22.0057 6.29873 22.0121 5.9606C22.0179 5.6376 22.2987 5.35464 22.621 5.34756C22.9437 5.33975 23.2518 5.64175 23.2547 5.96768C23.2577 6.29776 22.9598 6.5917 22.6268 6.58975Z" fill="white"/>
</svg>
