<svg width="18" height="15" viewBox="0 0 18 15" fill="none" xmlns="http://www.w3.org/2000/svg">
<path fill-rule="evenodd" clip-rule="evenodd" d="M5.21837 11.2667C3.58931 11.119 2.50596 10.3 1.89853 8.78398C2.44037 8.84747 2.94214 8.85733 3.43842 8.7171C2.45911 8.45443 1.69207 7.90919 1.16736 7.04297C0.827134 6.48126 0.65912 5.8685 0.667199 5.18628C1.16186 5.43167 1.65911 5.59774 2.24845 5.60841C1.47818 5.04137 0.982542 4.33652 0.780285 3.44202C0.576406 2.54268 0.717284 1.69373 1.17123 0.865309C3.0982 3.13428 5.52855 4.38483 8.47779 4.58547C8.46649 4.21488 8.43353 3.86076 8.44936 3.50939C8.52271 1.86514 9.90331 0.416044 11.5408 0.238011C12.6849 0.113617 13.6703 0.448348 14.4987 1.24382C14.5747 1.31716 14.6396 1.32718 14.7388 1.30472C15.4257 1.14915 16.0797 0.90699 16.6942 0.561593C16.732 0.540431 16.7717 0.523141 16.8425 0.48809C16.5672 1.31329 16.0703 1.92475 15.3886 2.42426C15.5488 2.39712 15.7104 2.37467 15.869 2.3422C16.0293 2.30908 16.1895 2.27144 16.3469 2.22782C16.5097 2.18275 16.6713 2.13121 16.8312 2.07629C16.984 2.02395 17.1336 1.96305 17.3217 1.89229C17.0005 2.37273 16.6557 2.77967 16.2609 3.14284C16.0703 3.31828 15.8664 3.48096 15.6619 3.64041C15.5827 3.70277 15.5514 3.76222 15.5556 3.86609C15.6852 7.61663 13.5301 11.802 9.52399 13.5091C7.87231 14.2125 6.14728 14.4395 4.36603 14.2615C2.86395 14.1114 1.46978 13.6356 0.179964 12.8534C0.129238 12.8224 0.0814164 12.7865 0 12.731C1.93956 12.9051 3.65878 12.4392 5.21837 11.2667Z" fill="black"/>
</svg>
