<svg width="10" height="18" viewBox="0 0 10 18" fill="none" xmlns="http://www.w3.org/2000/svg">
<path fill-rule="evenodd" clip-rule="evenodd" d="M2.68019 17.9534C2.6776 17.8799 2.67211 17.8065 2.67211 17.7337C2.67146 15.2463 2.67146 12.7589 2.67146 10.2715V10.0334H0.0113831V6.94457H2.67146C2.67146 6.85718 2.67146 6.79094 2.67146 6.72487C2.67275 5.97318 2.66693 5.22149 2.67663 4.4698C2.68664 3.7299 2.83947 3.02135 3.20942 2.37418C3.7826 1.36966 4.67791 0.838971 5.7955 0.653032C6.5942 0.520075 7.39743 0.597462 8.19807 0.635748C8.46753 0.648347 8.73667 0.678236 9.01324 0.700688V3.46723C8.95509 3.46723 8.89564 3.46723 8.83586 3.46723C8.32181 3.46787 7.80711 3.46593 7.29274 3.47126C7.15187 3.47255 7.01035 3.4858 6.87142 3.5102C6.27175 3.61618 5.93023 3.92586 5.8921 4.54783C5.84428 5.33522 5.8808 6.1273 5.8808 6.94248H8.91341L8.51567 10.0248H5.87401C5.8682 10.0909 5.86012 10.1386 5.86012 10.1869C5.85947 12.7365 5.85947 15.286 5.86012 17.8356C5.86012 17.8745 5.86626 17.9136 5.86884 17.9534L2.68019 17.9534Z" fill="black"/>
</svg>
