<svg width="14" height="15" viewBox="0 0 14 15" fill="none" xmlns="http://www.w3.org/2000/svg">
<path fill-rule="evenodd" clip-rule="evenodd" d="M7.87541 14.2145H5.00241V4.94789H7.75716V6.18325C7.79141 6.16548 7.8095 6.16209 7.81531 6.15159C8.45311 5.13787 9.40334 4.72091 10.5668 4.71832C11.2411 4.71703 11.8954 4.81493 12.4909 5.15903C13.1691 5.55208 13.5319 6.1734 13.739 6.90392C13.9051 7.48954 13.9671 8.09228 13.972 8.69648C13.9846 10.495 13.9778 12.2929 13.9791 14.0914C13.9791 14.1186 13.9758 14.1464 13.9733 14.1874H11.0915C11.0915 14.1199 11.0915 14.0543 11.0915 13.9882C11.0915 12.58 11.1006 11.1719 11.086 9.76384C11.0809 9.28614 11.0576 8.801 10.9684 8.33315C10.8056 7.48356 10.2062 7.16337 9.37814 7.24996C8.51934 7.34059 8.05828 7.82169 7.94293 8.71764C7.9019 9.03654 7.88025 9.35948 7.87831 9.68048C7.87153 11.1223 7.8754 12.5648 7.8754 14.0066L7.87541 14.2145Z" fill="black"/>
<path fill-rule="evenodd" clip-rule="evenodd" d="M0.311569 14.2111V4.94528H3.17455V14.2111H0.311569Z" fill="black"/>
<path fill-rule="evenodd" clip-rule="evenodd" d="M1.74437 3.67285C0.822564 3.67285 0.0687742 2.91195 0.070713 1.98287C0.0726518 1.06705 0.831934 0.314711 1.74954 0.317298C2.66617 0.320044 3.42707 1.08692 3.4164 1.99741C3.40638 2.92244 2.65744 3.67284 1.74436 3.67284L1.74437 3.67285Z" fill="black"/>
</svg>
