<svg width="16" height="19" viewBox="0 0 16 19" fill="none" xmlns="http://www.w3.org/2000/svg">
<path fill-rule="evenodd" clip-rule="evenodd" d="M8.97973 0.00465191C9.32448 0.0529565 9.67116 0.0899525 10.014 0.152146C11.0938 0.348753 12.0963 0.743739 12.9923 1.3817C14.4485 2.41852 15.3868 3.80219 15.6323 5.58683C15.8976 7.51105 15.4789 9.30425 14.3839 10.9121C13.5354 12.1582 12.3687 12.9906 10.8886 13.3335C9.92576 13.5564 8.96648 13.565 8.04145 13.1415C7.59073 12.9351 7.19946 12.6551 6.8993 12.2045C6.77749 12.6459 6.66893 13.0535 6.55261 13.4591C6.32418 14.2551 6.15488 15.0696 5.80399 15.8287C5.38396 16.7405 4.85795 17.5882 4.29221 18.4134C4.25634 18.4649 4.18106 18.4895 4.12388 18.5265C4.08284 18.453 4.01693 18.3822 4.00433 18.3042C3.75135 16.6737 3.67671 15.0578 4.14132 13.4359C4.57266 11.9286 4.90869 10.3941 5.28122 8.86951C5.30061 8.79003 5.28736 8.69149 5.25893 8.61281C4.88445 7.59505 4.82403 6.58003 5.30061 5.57745C5.52548 5.10234 5.86377 4.71866 6.35327 4.50089C7.39138 4.03967 8.62045 4.5248 8.58394 5.96065C8.56681 6.61379 8.35034 7.22251 8.16423 7.8385C7.98911 8.41959 7.79849 8.99649 7.63887 9.58146C7.37619 10.543 7.89573 11.4105 8.87117 11.6189C9.72996 11.8021 10.5073 11.5672 11.1984 11.0491C11.9752 10.4676 12.4417 9.66756 12.7209 8.75497C13.0676 7.62025 13.1849 6.4642 12.8857 5.30088C12.5448 3.97424 11.7183 3.03725 10.4838 2.46617C9.42431 1.97651 8.30736 1.8904 7.16262 2.05583C6.06473 2.21479 5.09737 2.65276 4.29415 3.42302C2.79335 4.86162 2.31225 7.21394 3.46895 9.09179C3.48479 9.11764 3.49545 9.14866 3.51709 9.16788C3.83017 9.44187 3.80497 9.76546 3.68123 10.1209C3.59076 10.3814 3.54036 10.6554 3.4696 10.9228C3.39012 11.2218 3.2822 11.2688 2.99788 11.1331C2.53132 10.9108 2.1436 10.5873 1.83375 10.179C0.873823 8.91312 0.505166 7.49116 0.720022 5.91363C0.841829 5.01897 1.11905 4.18263 1.58561 3.40913C2.34263 2.1539 3.41532 1.26521 4.7578 0.695428C5.65795 0.31304 6.60011 0.107223 7.57425 0.0384056C7.63306 0.0337207 7.69057 0.0165957 7.74873 0.00463867L8.97973 0.00465191Z" fill="black"/>
</svg>
